# AST/ASF file generated using VICON BodyLanguage
# -----------------------------------------------
:version 1.10
:name VICON
:units
  mass 1.0
  length 0.45
  angle deg
:documentation
   .ast/.asf automatically generated from VICON data using
   VICON BodyBuilder and BodyLanguage model FoxedUp or BRILLIANT.MOD
:root
   order TX TY TZ RX RY RZ
   axis XYZ
   position 0 0 0  
   orientation 0 0 0 
:bonedata
  begin
     id 1 
     name lhipjoint
     direction 0.643824 -0.71708 0.266994 
     length 2.52133 
     axis 0 0 0  XYZ
  end
  begin
     id 2 
     name lfemur
     direction 0.34202 -0.939693 0  
     length 7.51824  
     axis 0 0 20  XYZ
    dof rx ry rz
    limits (-160.0 20.0)
           (-70.0 70.0)
           (-60.0 70.0)
  end
  begin
     id 3 
     name ltibia
     direction 0.34202 -0.939693 0   
     length 7.3685   
     axis 0 0 20   XYZ
    dof rx
    limits (-10.0 170.0)
  end
  begin
     id 4 
     name lfoot
     direction 0.105419 -0.289636 0.951314   
     length 2.20972   
     axis -90 7.62852e-016 20   XYZ
    dof rx rz
    limits (-45.0 90.0)
           (-70.0 20.0)
  end
  begin
     id 5 
     name ltoes
     direction 1.53549e-011 -4.21833e-011 1   
     length 1.10139   
     axis -90 7.62852e-016 20   XYZ
    dof rx
    limits (-90.0 20.0)
  end
  begin
     id 6 
     name rhipjoint
     direction -0.608823 -0.743445 0.276811   
     length 2.43192  
     axis 0 0 0  XYZ 
  end
  begin
     id 7 
     name rfemur
     direction -0.34202 -0.939693 0   
     length 7.69715   
     axis 0 0 -20   XYZ
    dof rx ry rz
    limits (-160.0 20.0)
           (-70.0 70.0)
           (-70.0 60.0)
  end
  begin
     id 8 
     name rtibia
     direction -0.34202 -0.939693 0   
     length 7.44924   
     axis 0 0 -20   XYZ
    dof rx
    limits (-10.0 170.0)
 end
 begin
     id 9 
     name rfoot
     direction -0.103614 -0.284677 0.953007   
     length 2.22623  
     axis -90 -7.62852e-016 -20   XYZ
    dof rx rz
    limits (-45.0 90.0)
           (-20.0 70.0)
  end
  begin
     id 10 
     name rtoes
     direction -1.53537e-011 -4.22026e-011 1   
     length 1.11   
     axis -90 -7.62852e-016 -20   XYZ
    dof rx
    limits (-90.0 20.0)
  end
  begin
     id 11 
     name lowerback
     direction -0.0101212 0.99662 -0.0815298   
     length 2.08277   
     axis 0 0 0   XYZ
    dof rx ry rz
    limits (-20.0 45.0)
           (-30.0 30.0)
           (-30.0 30.0)
  end
  begin
     id 12 
     name upperback
     direction 0.024314 0.999591 -0.0150645   
     length 2.08524   
     axis 0 0 0   XYZ
    dof rx ry rz
    limits (-20.0 45.0)
           (-30.0 30.0)
           (-30.0 30.0)
  end
  begin
     id 13 
     name thorax
     direction 0.0285959 0.999323 0.0231357   
     length 2.09645   
     axis 0 0 0   XYZ
    dof rx ry rz
    limits (-20.0 45.0)
           (-30.0 30.0)
           (-30.0 30.0)
  end
  begin
     id 14 
     name lowerneck
     direction -0.065512 0.979301 0.191515   
     length 1.63798   
     axis 0 0 0   XYZ
    dof rx ry rz
    limits (-20.0 45.0)
           (-30.0 30.0)
           (-30.0 30.0)
  end
  begin
     id 15 
     name upperneck
     direction 0.0498479 0.98191 -0.182667   
     length 1.68731   
     axis 0 0 0   XYZ
    dof rx ry rz
    limits (-20.0 45.0)
           (-30.0 30.0)
           (-30.0 30.0)
  end
  begin
     id 16
     name head
     direction 0.0230358 0.996257 -0.0833175  
     length 1.69785  
     axis 0 0 0   XYZ
    dof rx ry rz
    limits (-20.0 45.0)
           (-30.0 30.0)
           (-30.0 30.0)
  end
  begin
     id 17 
     name lclavicle
     direction 0.967963 0.201165 -0.150269  
     length 3.63976  
     axis 0 0 0   XYZ
    dof ry rz
    limits (-20.0 10.0)
           (0.0 20.0)
  end
  begin
     id 18 
     name lhumerus
     direction 1 -4.48954e-011 -2.92837e-028   
     length 5.32462   
     axis 180 -30 -90   XYZ
    dof rx ry rz
    limits (-60.0 90.0)
           (-90.0 90.0)
           (-90.0 90.0)
  end
  begin
     id 19
     name lradius
     direction 1 -4.48958e-011 -6.39511e-027   
     length 3.48402   
     axis 180 -30 -90   XYZ
    dof rx
    limits (-10.0 170.0)
  end
  begin
     id 20
     name lwrist
     direction 1 -4.48975e-011 -1.1413e-026   
     length 1.74201   
     axis 6.88575e-015 90 90   XYZ
    dof ry
    limits (-180.0 0.0)
 end
  begin
     id 21 
     name lhand
     direction 1 -4.48899e-011 -2.28192e-026   
     length 0.572476   
     axis 1.45643e-014 90 90   XYZ
    dof rx rz
    limits (-90.0 90.0)
           (-45.0 45.0)
  end
  begin
     id 22 
     name lfingers
     direction 1 -4.49155e-011 -4.5684e-026   
     length 0.461545   
     axis 2.91283e-014 90 90   XYZ
    dof rx
    limits (0.0 90.0)
  end
  begin
     id 23
     name lthumb
     direction 0.707107 -6.34943e-011 0.707107   
     length 0.662688   
     axis -90 45 -2.25915e-014   XYZ
    dof rx rz
    limits (-45.0 45.0)
           (-45.0 45.0)
  end
  begin
     id 24 
     name rclavicle
     direction -0.964103 0.264019 -0.0282629   
     length 3.54491  
     axis 0 0 0   XYZ 
    dof ry rz
    limits (-10.0 20.0)
           (-20.0 0.0)
  end
  begin
     id 25 
     name rhumerus
     direction -1 -4.48964e-011 -2.45032e-027  
     length 5.33589   
     axis 180 30 90   XYZ
    dof rx ry rz
    limits (-90.0 60.0)
           (-90.0 90.0)
           (-90.0 90.0)
  end
  begin
     id 26 
     name rradius
     direction -1 -4.48987e-011 -1.55093e-027   
     length 3.64134   
     axis 180 30 90   XYZ
    dof rx
    limits (-10.0 170.0)
  end
  begin
     id 27 
     name rwrist
     direction -1 -4.4897e-011 -1.14128e-026   
     length 1.82067   
     axis 6.88575e-015 -90 -90   XYZ
    dof ry
    limits (-180.0 0.0)
  end
  begin
     id 28
     name rhand
     direction -1 -4.49021e-011 -2.28301e-026   
     length 0.734811   
     axis 1.45643e-014 -90 -90   XYZ
    dof rx rz
    limits (-90.0 90.0)
           (-45.0 45.0)
  end
  begin
     id 29
     name rfingers
     direction -1 -4.48862e-011 -4.56319e-026   
     length 0.592424   
     axis 2.91283e-014 -90 -90   XYZ
    dof rx
    limits (0.0 90.0)
  end
  begin
     id 30
     name rthumb
     direction -0.707107 -6.34978e-011 0.707107   
     length 0.850605   
     axis -90 -45 2.25915e-014   XYZ
    dof rx rz
    limits (-45.0 45.0)
           (-45.0 45.0)
  end
:hierarchy
  begin
    root lhipjoint rhipjoint lowerback
    lhipjoint lfemur
    lfemur ltibia
    ltibia lfoot
    lfoot ltoes
    rhipjoint rfemur
    rfemur rtibia
    rtibia rfoot
    rfoot rtoes
    lowerback upperback
    upperback thorax
    thorax lowerneck lclavicle rclavicle
    lowerneck upperneck
    upperneck head
    lclavicle lhumerus
    lhumerus lradius
    lradius lwrist
    lwrist lhand lthumb
    lhand lfingers
    rclavicle rhumerus
    rhumerus rradius
    rradius rwrist
    rwrist rhand rthumb
    rhand rfingers
  end

#!OML:ASF F:\VICON\USERDATA\INSTALL\rory3\rory3.ASF
:FULLY-SPECIFIED
:DEGREES
124
root -0.159307 17.8397 13.6605 -169.527 0.593316 178.406
lowerback 2.26964 -0.52288 -3.83151
upperback 0.571661 -0.74102 2.19884
thorax -0.606459 -0.356104 4.43913
lowerneck -14.6409 -2.44884 -7.55586
upperneck 42.2291 6.95306 -2.82487
head 18.4395 3.03693 1.98107
rclavicle -1.87852e-014 7.95139e-015
rhumerus -33.097 -10.9043 -75.8383
rradius 31.9676
rwrist 19.4356
rhand -20.2666 3.54909
rfingers 7.12502
rthumb 6.08239 -26.3436
lclavicle -1.87852e-014 7.95139e-015
lhumerus -36.8495 16.4697 78.2365
lradius 27.5438
lwrist -6.26891
lhand -9.27381 29.6803
lfingers 7.12502
lthumb 16.6829 58.9834
rfemur -20.4028 2.00581 23.5031
rtibia 29.7701
rfoot -18.1458 -2.88119
rtoes 17.7036
lfemur -23.6114 -1.15922 -21.5032
ltibia 36.4427
lfoot -10.2981 6.74825
ltoes -25.8832
125
root -0.140555 17.8503 13.6718 -169.543 0.397753 178.626
lowerback 2.3376 -0.505349 -3.55214
upperback 0.632325 -0.708393 2.23791
thorax -0.588591 -0.339684 4.32075
lowerneck -14.7115 -2.49742 -7.69316
upperneck 42.1968 6.82938 -2.67903
head 18.4269 2.97648 2.04814
rclavicle 4.07509e-015 2.14687e-014
rhumerus -32.9159 -11.0784 -75.7962
rradius 31.8374
rwrist 19.7412
rhand -20.3116 3.84732
rfingers 7.12502
rthumb 6.03899 -26.0466
lclavicle 4.07509e-015 2.14687e-014
lhumerus -36.6329 16.2586 78.3514
lradius 28.0963
lwrist -5.84498
lhand -9.26411 29.4742
lfingers 7.12502
lthumb 16.6922 58.7765
rfemur -20.2511 1.73889 23.8621
rtibia 29.4156
rfoot -17.9561 -2.9108
rtoes 17.6658
lfemur -24.4067 -0.986716 -21.106
ltibia 37.6813
lfoot -9.7553 6.07624
ltoes -26.107
126
root -0.119383 17.8602 13.685 -169.578 0.0346409 178.822
lowerback 2.51991 -0.48837 -3.30021
upperback 0.637171 -0.753612 2.28187
thorax -0.685753 -0.389929 4.22742
lowerneck -14.6831 -2.52748 -7.70182
upperneck 42.1282 6.75176 -2.67152
head 18.3778 2.94626 2.03438
rclavicle 9.34288e-015 1.59028e-014
rhumerus -32.8248 -11.1584 -75.7703
rradius 31.7489
rwrist 19.9321
rhand -20.4232 3.99004
rfingers 7.12502
rthumb 5.93128 -25.9069
lclavicle 9.34288e-015 1.59028e-014
lhumerus -36.4128 15.9662 78.4008
lradius 28.4844
lwrist -5.29666
lhand -9.29678 28.7377
lfingers 7.12502
lthumb 16.6607 58.0427
rfemur -20.05 1.4714 24.2206
rtibia 29.0114
rfoot -17.8167 -3.09508
rtoes 17.4739
lfemur -25.2802 -0.840196 -20.729
ltibia 39.0103
lfoot -9.03039 5.31228
ltoes -26.6449
127
root -0.102771 17.8714 13.693 -169.599 -0.27763 178.655
lowerback 2.6054 -0.544083 -3.42551
upperback 0.668383 -0.832704 2.2306
thorax -0.692752 -0.429286 4.2484
lowerneck -14.7039 -2.55451 -7.63888
upperneck 42.1258 6.69832 -2.69235
head 18.3855 2.93127 2.00405
rclavicle 4.67144e-015 -1.90833e-014
rhumerus -32.6954 -11.2204 -75.7785
rradius 31.712
rwrist 20.0597
rhand -20.5005 4.20979
rfingers 7.12502
rthumb 5.85666 -25.6893
lclavicle 4.67144e-015 -1.90833e-014
lhumerus -36.2015 15.7081 78.4433
lradius 28.8055
lwrist -5.06567
lhand -9.43146 27.9148
lfingers 7.12502
lthumb 16.5311 57.2306
rfemur -19.8296 1.10748 24.1448
rtibia 28.5608
rfoot -17.7095 -3.15189
rtoes 17.193
lfemur -26.1804 -0.787584 -20.7864
ltibia 40.4068
lfoot -8.28923 4.68487
ltoes -27.6382
128
root -0.102162 17.8845 13.7113 -169.443 -0.785317 178.668
lowerback 2.63989 -0.663961 -3.07422
upperback 0.600377 -0.983958 2.20587
thorax -0.773498 -0.502334 4.02926
lowerneck -14.6772 -2.59172 -7.61712
upperneck 42.1048 6.64821 -2.73337
head 18.3705 2.91229 1.97069
rclavicle 2.38542e-015 1.43125e-014
rhumerus -32.5861 -11.0952 -75.8424
rradius 31.7509
rwrist 19.9414
rhand -20.6064 4.09791
rfingers 7.12502
rthumb 5.75434 -25.804
lclavicle 2.38542e-015 1.43125e-014
lhumerus -36.033 15.5298 78.5174
lradius 29.1063
lwrist -5.14408
lhand -9.54004 27.1593
lfingers 7.12502
lthumb 16.4265 56.4838
rfemur -19.7787 0.343672 24.2276
rtibia 28.0964
rfoot -17.4272 -2.83847
rtoes 17.9267
lfemur -27.3509 -0.828477 -20.6976
ltibia 41.8672
lfoot -7.42361 3.99132
ltoes -28.792
129
root -0.0771914 17.8907 13.722 -169.569 -0.913015 178.831
lowerback 2.94343 -0.589999 -2.99243
upperback 0.591974 -0.892749 2.26869
thorax -0.96099 -0.454414 4.05032
lowerneck -14.6365 -2.68161 -7.75087
upperneck 42.0891 6.51648 -2.66462
head 18.3473 2.85159 2.00032
rclavicle -5.56597e-015 -3.33958e-014
rhumerus -32.5957 -10.7636 -75.9793
rradius 32.0221
rwrist 19.4095
rhand -20.6143 3.30122
rfingers 7.12502
rthumb 5.7467 -26.6009
lclavicle -5.56597e-015 -3.33958e-014
lhumerus -35.8816 15.2684 78.6508
lradius 29.4363
lwrist -5.25616
lhand -9.81128 26.5194
lfingers 7.12502
lthumb 16.1654 55.8653
rfemur -19.4789 0.722046 24.4764
rtibia 27.6407
rfoot -17.3024 -3.24219
rtoes 18.7219
lfemur -28.3021 -0.512371 -20.3473
ltibia 43.3846
lfoot -6.69826 3.33096
ltoes -28.312
130
root -0.0612051 17.9026 13.733 -169.486 -1.15856 178.881
lowerback 3.02975 -0.5478 -2.85314
upperback 0.553958 -0.834064 2.26986
thorax -1.05585 -0.423034 3.97228
lowerneck -14.6745 -2.77079 -7.90213
upperneck 42.0692 6.34473 -2.51606
head 18.3367 2.77559 2.0631
rclavicle -1.74931e-014 3.18055e-015
rhumerus -32.5683 -10.7581 -75.9872
rradius 32.2398
rwrist 19.1086
rhand -20.452 2.73426
rfingers 7.12502
rthumb 5.90346 -27.1635
lclavicle -1.74931e-014 3.18055e-015
lhumerus -35.6092 14.8632 78.8439
lradius 29.7588
lwrist -5.33732
lhand -10.1209 25.8789
lfingers 7.12502
lthumb 15.8672 55.2488
rfemur -19.4085 0.446029 24.6232
rtibia 27.1938
rfoot -17.0068 -3.1591
rtoes 19.1907
lfemur -29.5036 -0.327306 -20.1786
ltibia 44.9898
lfoot -6.28985 3.02395
ltoes -28.0655
131
root -0.0506524 17.9117 13.7416 -169.572 -1.401 178.825
lowerback 3.17963 -0.556124 -2.78627
upperback 0.61593 -0.848179 2.23647
thorax -1.07636 -0.43159 3.902
lowerneck -14.7294 -2.78289 -7.88802
upperneck 42.0125 6.29085 -2.50698
head 18.317 2.75259 2.05253
rclavicle 4.17448e-015 -1.74931e-014
rhumerus -32.4142 -10.7535 -75.998
rradius 32.32
rwrist 18.9966
rhand -20.3027 2.71781
rfingers 7.12502
rthumb 6.04755 -27.1759
lclavicle 4.17448e-015 -1.74931e-014
lhumerus -35.3458 14.4755 79.0551
lradius 30.3614
lwrist -5.23305
lhand -10.0411 26.3216
lfingers 7.12502
lthumb 15.9441 55.6854
rfemur -19.1211 0.0702334 24.6444
rtibia 26.7438
rfoot -16.7826 -3.05101
rtoes 19.5312
lfemur -30.5116 -0.18018 -20.1811
ltibia 46.6825
lfoot -6.41256 2.8535
ltoes -29.1878
132
root -0.0430181 17.921 13.7532 -169.714 -1.61222 178.685
lowerback 3.43126 -0.586979 -2.79697
upperback 0.686995 -0.897441 2.19874
thorax -1.14037 -0.45697 3.87419
lowerneck -14.8316 -2.77591 -7.87485
upperneck 41.9905 6.33285 -2.57983
head 18.3363 2.7563 2.02554
rclavicle -1.05356e-014 -1.43125e-014
rhumerus -32.2642 -10.5272 -76.0396
rradius 32.4598
rwrist 18.7983
rhand -20.1163 2.72441
rfingers 7.12502
rthumb 6.22754 -27.1641
lclavicle -1.05356e-014 -1.43125e-014
lhumerus -35.1493 14.0101 79.3746
lradius 31.2725
lwrist -4.76762
lhand -9.78019 27.6208
lfingers 7.12502
lthumb 16.1953 56.9643
rfemur -18.7747 -0.328743 24.5526
rtibia 26.2747
rfoot -16.6053 -2.9327
rtoes 19.5398
lfemur -31.4632 0.135221 -20.3713
ltibia 48.4623
lfoot -6.86083 2.44859
ltoes -30.6921
133
root -0.0307944 17.9357 13.7646 -169.812 -1.83107 178.684
lowerback 3.66826 -0.61297 -2.7872
upperback 0.705653 -0.939369 2.2523
thorax -1.24954 -0.477633 3.92986
lowerneck -14.8791 -2.79455 -7.94913
upperneck 41.9925 6.3528 -2.60171
head 18.3523 2.7488 2.03397
rclavicle -4.96962e-015 -4.37326e-014
rhumerus -32.1796 -10.1822 -76.0387
rradius 32.6145
rwrist 18.5999
rhand -20.0815 2.53633
rfingers 7.12502
rthumb 6.26115 -27.3511
lclavicle -4.96962e-015 -4.37326e-014
lhumerus -35.0165 13.7629 79.6157
lradius 31.9706
lwrist -4.54928
lhand -9.68332 28.322
lfingers 7.12502
lthumb 16.2886 57.6578
rfemur -18.4409 -0.620892 24.6154
rtibia 25.759
rfoot -16.3942 -2.92104
rtoes 19.5413
lfemur -32.5414 0.521955 -20.4074
ltibia 50.3293
lfoot -7.39361 1.63339
ltoes -30.4982
134
root -0.0134578 17.9517 13.7755 -169.89 -2.18052 178.832
lowerback 3.92429 -0.65559 -2.66572
upperback 0.673851 -0.999133 2.35957
thorax -1.42056 -0.506092 3.98022
lowerneck -14.8233 -2.8057 -7.99949
upperneck 41.9554 6.37035 -2.63838
head 18.3176 2.75016 2.02764
rclavicle 6.55989e-015 1.82882e-014
rhumerus -32.0838 -9.9927 -75.9676
rradius 32.6117
rwrist 18.6662
rhand -19.997 2.47644
rfingers 7.12502
rthumb 6.3427 -27.4086
lclavicle 6.55989e-015 1.82882e-014
lhumerus -34.8782 13.5609 79.7941
lradius 32.4665
lwrist -4.45557
lhand -9.7324 28.5437
lfingers 7.12502
lthumb 16.2413 57.8834
rfemur -18.0704 -0.829785 24.8718
rtibia 25.1539
rfoot -16.2185 -3.10548
rtoes 19.6521
lfemur -33.7342 0.858557 -20.2378
ltibia 52.2435
lfoot -7.936 0.612842
ltoes -29.1286
135
root 0.00456238 17.9706 13.7849 -169.998 -2.51671 178.874
lowerback 4.21577 -0.656552 -2.61228
upperback 0.696096 -1.00648 2.3906
thorax -1.56064 -0.509225 3.98785
lowerneck -14.8728 -2.84584 -7.96032
upperneck 41.9042 6.29048 -2.67345
head 18.3048 2.71715 1.98814
rclavicle -5.76476e-015 9.54166e-015
rhumerus -31.8878 -10.1305 -75.9095
rradius 32.545
rwrist 18.7957
rhand -20.0107 2.47641
rfingers 7.12502
rthumb 6.32952 -27.409
lclavicle -5.76476e-015 9.54166e-015
lhumerus -34.5877 13.1418 80.0245
lradius 32.9591
lwrist -4.22746
lhand -9.88161 28.4505
lfingers 7.12502
lthumb 16.0977 57.8019
rfemur -17.5867 -0.975741 24.994
rtibia 24.462
rfoot -16.1188 -3.29566
rtoes 20.3243
lfemur -34.8362 1.19581 -20.1994
ltibia 54.1539
lfoot -8.46814 -0.0699842
ltoes -29.6911
136
root 0.0210463 17.9947 13.7917 -170.09 -2.79468 178.802
lowerback 4.39618 -0.646411 -2.66292
upperback 0.769112 -1.0018 2.3889
thorax -1.58609 -0.50856 4.01712
lowerneck -14.8909 3.70936 -9.72092
upperneck 42.1745 2.91645 0.594666
head 18.0752 -2.13904 1.97204
rclavicle -1.90833e-014 3.97569e-015
rhumerus -31.6564 -10.3189 -75.8455
rradius 32.4664
rwrist 18.9321
rhand -20.1855 2.71999
rfingers 7.12502
rthumb 6.16074 -27.1704
lclavicle -1.90833e-014 3.97569e-015
lhumerus -34.2301 12.8009 80.2397
lradius 33.4338
lwrist -4.0379
lhand -9.97877 27.9934
lfingers 7.12502
lthumb 16.0041 57.3523
rfemur -17.0818 -0.962949 24.9617
rtibia 23.7195
rfoot -16.0132 -3.55958
rtoes 21.0651
lfemur -35.9465 1.47368 -20.2869
ltibia 56.0408
lfoot -9.03814 -0.451538
ltoes -30.9034
137
root 0.0352805 18.0125 13.799 -170.131 -3.09915 178.752
lowerback 4.45823 -0.694106 -2.68365
upperback 0.845048 -1.07061 2.38768
thorax -1.53618 -0.546191 4.03157
lowerneck -14.8559 3.65016 -9.69248
upperneck 42.039 2.86664 0.573297
head 17.9912 -2.13292 1.95289
rclavicle 1.80894e-014 -3.18055e-015
rhumerus -31.4457 -10.2422 -75.8805
rradius 32.5165
rwrist 18.9747
rhand -20.1608 2.73618
rfingers 7.12502
rthumb 6.1846 -27.1535
lclavicle 1.80894e-014 -3.18055e-015
lhumerus -33.9392 12.6738 80.3211
lradius 33.9108
lwrist -4.02484
lhand -10.0166 27.5987
lfingers 7.12502
lthumb 15.9677 56.9605
rfemur -16.6407 -1.00043 24.9824
rtibia 22.9211
rfoot -15.8547 -3.98816
rtoes 20.6472
lfemur -37.2024 1.70886 -20.3681
ltibia 57.9121
lfoot -9.57209 -0.809809
ltoes -30.7513
138
root 0.049687 18.0293 13.8054 -170.221 -3.37931 178.697
lowerback 4.62533 -0.635644 -2.67381
upperback 0.967871 -0.999711 2.28757
thorax -1.51157 -0.514243 3.91984
lowerneck -15.1108 3.49456 -9.45319
upperneck 42.0579 2.64576 0.549699
head 18.0943 -2.16755 1.86884
rclavicle 6.36111e-015 3.49861e-014
rhumerus -31.2569 -10.4985 -75.9416
rradius 32.5794
rwrist 18.9773
rhand -20.0076 2.68358
rfingers 7.12502
rthumb 6.33252 -27.2018
lclavicle 6.36111e-015 3.49861e-014
lhumerus -33.5406 12.222 80.4112
lradius 34.4287
lwrist -4.02421
lhand -10.0252 27.313
lfingers 7.12502
lthumb 15.9594 56.6755
rfemur -16.1145 -1.05263 24.9994
rtibia 22.0522
rfoot -15.6339 -4.40283
rtoes 19.862
lfemur -38.388 2.03705 -20.5322
ltibia 59.8025
lfoot -10.1941 -1.20929
ltoes -30.185
